<?xml version="1.0" encoding="UTF-8" standalone="no"?>
<!-- Uploaded to: SVG Repo, www.svgrepo.com, Generator: SVG Repo Mixer Tools -->

<svg
   fill="#000000"
   width="40"
   height="40"
   viewBox="0 0 50 50"
   version="1.1"
   id="svg4"
   xmlns="http://www.w3.org/2000/svg"
   xmlns:svg="http://www.w3.org/2000/svg">
  <defs
     id="defs8" />
  <path
     d="m 13,19 c -2.206,0 -4,1.794 -4,4 0,0.053 0.00467,0.105203 0.013672,0.158203 l 4,24 C 13.090672,47.644203 13.509,48 14,48 h 22 c 0.491,0 0.909328,-0.355797 0.986328,-0.841797 l 4,-24 c 0.004,-0.027 -0.004,-0.05308 -0.002,-0.08008 C 40.986375,23.051125 41,23.028 41,23 41,20.794 39.206,19 37,19 35.799,19 34.734,19.542812 34,20.382812 33.266,19.542813 32.201,19 31,19 29.799,19 28.734,19.542812 28,20.382812 27.266,19.542813 26.201,19 25,19 23.799,19 22.734,19.542812 22,20.382812 21.266,19.542813 20.201,19 19,19 17.799,19 16.734,19.542812 16,20.382812 15.266,19.542813 14.201,19 13,19 Z"
     id="path184"
     style="fill:#ac130d;fill-opacity:1" />
  <path
     d="m 27.857032,4.6361378 a 1.0001,1.0001 0 0 0 -0.777344,0.375 c -0.257793,0.3222412 -0.600874,0.5253906 -0.919922,0.5253906 -0.07778,0 -0.358659,-0.075043 -0.445312,-0.1328125 a 1.0001,1.0001 0 0 0 -1.261719,0.125 C 24.141071,5.8403796 23.882308,6.2130908 23.667578,6.6146534 23.479772,6.3077066 23.250198,6.018721 22.964454,5.7669972 22.303408,5.1175017 21.477866,4.7482977 20.620704,4.6634816 19.752842,4.5776066 18.85814,4.7722099 18.083594,5.2240284 a 1.0001,1.0001 0 0 0 -0.482422,1.0273438 c 0.06149,0.3689527 -0.0035,0.7105771 -0.220703,0.9277344 -0.08215,0.082149 -0.225771,0.1858372 -0.435547,0.2382812 a 1.0001,1.0001 0 0 0 -0.75,0.8457031 c -0.126116,1.0089308 0.05592,2.1593041 0.623047,3.1718751 -0.03619,-0.01415 -0.08335,-0.01781 -0.103515,-0.03125 a 1.0001,1.0001 0 0 0 -1.261719,0.125 c -0.757135,0.757135 -1.292969,1.811516 -1.292969,3.007813 0,0.915873 0.148937,1.629694 0.351562,2.183593 -0.07992,-0.06549 -0.153627,-0.140755 -0.21875,-0.238281 -0.226,-0.336 -0.628343,-0.509781 -1.027343,-0.425781 -0.721,0.144 -1.242078,0.532906 -1.705078,0.878906 -0.253,0.189 -0.400391,0.484781 -0.400391,0.800781 v 0.201172 c 0,0.433 -0.348641,0.729188 -0.556641,0.867188 -0.277,0.186 -0.443359,0.498031 -0.443359,0.832031 v 0.300781 c 0,0.171 0.01325,0.333188 0.03125,0.492188 0.714,-0.408 1.518,-0.678672 2.375,-0.763672 0.316,-0.421 0.515219,-0.89925 0.574219,-1.40625 0.016,-0.011 0.03183,-0.0193 0.04883,-0.0293 0.536,0.461 1.212703,0.707031 1.970703,0.707031 0.106,0 0.212312,-0.01239 0.320312,-0.02539 -0.200001,0.187003 -0.320314,0.445612 -0.320314,0.724612 v 0.300781 c 0,0.022 0.0039,0.04245 0.0039,0.06445 0.343,0.124 0.680094,0.267125 0.996094,0.453125 0.367,-0.215 0.759109,-0.377765 1.162109,-0.509765 0.437624,-0.463593 0.72049,-1.017451 0.806641,-1.613282 0.06752,-0.0021 0.137722,7.31e-4 0.203125,-0.0059 0.683817,0.52253 1.586464,0.759713 2.515625,0.523438 0.204,0.34 0.3125,0.71289 0.3125,1.08789 0,0.019 -0.0098,0.03959 -0.0098,0.05859 0.348,0.125 0.689766,0.271984 1.009766,0.458984 0.32,-0.188 0.661766,-0.333984 1.009766,-0.458984 0,-0.02 -0.0098,-0.03959 -0.0098,-0.05859 0,-0.375 0.1075,-0.748844 0.3125,-1.089843 0.991,0.251 1.963203,-0.02019 2.658203,-0.617188 0.017,0.01 0.03283,0.0193 0.04883,0.0293 0.073,0.624 0.36336,1.201594 0.81836,1.683594 0.403,0.132 0.796062,0.296718 1.164062,0.511718 0.316,-0.185 0.651141,-0.330078 0.994141,-0.455078 0,-0.022 0.0059,-0.04145 0.0059,-0.06445 v -0.29879 c 0,-0.334 -0.168312,-0.646031 -0.445312,-0.832031 -0.208969,-0.138 -0.55661,-0.435188 -0.55661,-0.867188 0,-0.435062 0.267345,-0.790221 0.509766,-1.148437 0.164029,0.02787 0.325505,0.148437 0.490234,0.148437 0.678214,0 1.299787,-0.30127 1.839844,-0.724609 0.08616,0.04495 0.180667,0.09341 0.285156,0.164062 0.08671,0.495973 0.288635,0.928163 0.580078,1.300782 -0.386336,0.600411 -0.621657,1.267416 -0.673828,1.960937 0.682,0.004 1.347516,0.136235 1.978516,0.365235 -0.002,-0.02 -0.0098,-0.04841 -0.0098,-0.06641 0,-0.355762 0.104049,-0.70861 0.289062,-1.035156 a 1.0001,1.0001 0 0 0 0.113282,-0.04297 c 0.959401,0.212574 1.894568,-0.05012 2.568359,-0.628906 0.017,0.01 0.03283,0.0193 0.04883,0.0293 0.059,0.506 0.259219,0.984297 0.574219,1.404297 0.135032,-0.01 0.269282,-0.02734 0.406282,-0.02734 0.701,0 1.370094,0.127609 1.996094,0.349609 0,-0.017 0.0039,-0.03183 0.0039,-0.04883 v -0.300779 c 6e-6,-0.334 -0.166353,-0.646031 -0.443353,-0.832031 -0.208,-0.138 -0.556641,-0.435188 -0.556641,-0.867188 V 17.73575 c 0,-0.315 -0.150344,-0.613734 -0.402344,-0.802734 -0.0031,-0.0024 -0.0066,-0.0055 -0.0098,-0.0078 0.311406,-0.555894 0.412144,-1.156527 0.412144,-1.689466 V 14.936922 A 1.0001,1.0001 0 0 0 37.714454,14.104891 C 37.327799,13.847122 37.159766,13.554798 37.159766,13.23575 V 13.036532 A 1.0001,1.0001 0 0 0 36.759375,12.23575 c -0.4,-0.3 -0.926551,-0.725544 -1.703125,-0.880859 a 1.0001,1.0001 0 0 0 -0.199218,-0.01953 1.0001,1.0001 0 0 0 -0.830078,0.445312 c -0.229324,0.343985 -0.452902,0.455078 -0.867188,0.455078 A 1.0001,1.0001 0 0 0 32.607032,11.34122 C 32.404555,11.239981 32.159766,10.85558 32.159766,10.536532 V 10.335357 A 1.0001,1.0001 0 0 0 31.759375,9.5365284 c -0.183478,-0.1376087 -0.403696,-0.300883 -0.652343,-0.453125 0.02516,-0.1802775 0.05273,-0.3600236 0.05273,-0.546875 V 8.2357472 A 1.0001,1.0001 0 0 0 30.607032,7.3412159 C 30.404555,7.2399775 30.159766,6.855576 30.159766,6.5365284 V 6.3353566 A 1.0001,1.0001 0 0 0 29.759375,5.5365284 c -0.4,-0.3 -0.926551,-0.7255444 -1.703125,-0.8808594 a 1.0001,1.0001 0 0 0 -0.199218,-0.019531 z"
     id="path2"
     style="fill:#ac130d;fill-opacity:1" />
  <path
     d="m 15.076172,25.005859 c 0.541,-0.061 1.040609,0.339672 1.099609,0.888672 L 18.316406,46 H 16.304688 L 14.1875,26.105469 c -0.059,-0.549 0.338672,-1.04061 0.888672,-1.09961 z"
     id="path192"
     style="fill:#ffffff" />
  <path
     d="m 34.738281,25.003906 c 0.549,0.057 0.949532,0.547657 0.894531,1.097656 L 33.607422,46 h -2.011719 l 2.044922,-20.101562 c 0.057,-0.549 0.530656,-0.934532 1.097656,-0.894532 z"
     id="path190"
     style="fill:#ffffff" />
  <path
     d="m 28.857422,25.001953 c 0.552,0.021 0.981937,0.48511 0.960937,1.037109 L 28.609375,46 h -2 l 1.210937,-20.039062 c 0.021,-0.552 0.49311,-0.976985 1.03711,-0.958985 z"
     id="path188"
     style="fill:#ffffff" />
  <path
     d="m 20.951172,25.001953 c 0.539,-0.036 1.020875,0.396219 1.046875,0.949219 L 23.601562,46 H 21.597656 L 20.001953,26.048828 c -0.026,-0.552 0.397219,-1.020875 0.949219,-1.046875 z"
     id="path186"
     style="fill:#ffffff" />
  <path
     d="m 23.06211,13.714263 c 0.545245,-0.06621 1.074062,0.0643 1.490234,0.480469 a 1.0001,1.0001 0 0 0 0.05664,0.05078 c 0.06288,0.0539 0.275513,0.41124 0.388672,0.894531 0.09116,0.389348 0.130688,0.825398 0.146484,1.212891 -0.03964,0.0417 -0.08252,0.08006 -0.115234,0.128906 -0.208,0.31 -0.483141,0.455078 -0.869141,0.455078 -0.119,0 -0.322359,-0.05081 -0.443359,-0.132812 -0.397,-0.263 -0.925672,-0.213 -1.263672,0.125 -0.11,0.11 -0.195969,0.233562 -0.292969,0.351562 -0.097,-0.118 -0.182969,-0.241562 -0.292969,-0.351562 -0.327141,-0.327142 -0.829738,-0.378536 -1.222656,-0.142578 0.180845,-0.314955 0.232608,-0.513987 0.294922,-0.728516 0.293902,-0.148973 0.635239,-0.270004 0.828125,-0.462891 0.516805,-0.516804 0.688238,-1.139888 0.748047,-1.751953 0.181976,-0.06229 0.365126,-0.106835 0.546875,-0.128906 z"
     id="path182"
     style="fill:#ffffff" />
  <path
     d="m 34.99961,13.271489 c 0.08616,0.04495 0.180667,0.09341 0.285156,0.164062 0.112188,0.642517 0.416513,1.18065 0.861328,1.617188 -0.0098,0.327808 -0.0703,0.590481 -0.185547,0.744141 a 1.0001,1.0001 0 0 0 -0.0098,0.01367 c -0.365738,-0.03652 -0.717636,0.125283 -0.921875,0.431641 -0.208,0.31 -0.483141,0.455078 -0.869141,0.455078 -0.119,0 -0.322359,-0.05081 -0.443359,-0.132812 -5.12e-4,-3.39e-4 -0.0014,3.38e-4 -0.002,0 -8.3e-4,-5.54e-4 -0.0011,-0.0014 -0.002,-0.002 -0.384759,-0.257308 -0.552606,-0.546824 -0.552606,-0.865187 V 15.496098 A 1.0001,1.0001 0 0 0 32.759375,14.69727 c -0.07647,-0.05736 -0.184897,-0.125686 -0.271484,-0.189453 0.11692,-0.183746 0.229018,-0.370155 0.318359,-0.572266 a 1.0001,1.0001 0 0 0 0.353516,0.06055 c 0.678214,0 1.299787,-0.30127 1.839844,-0.724609 z"
     id="path180"
     style="fill:#ffffff" />
  <path
     d="m 18.99961,12.811919 c 0.169587,0.08847 0.31056,0.136729 0.560547,0.324219 a 1.0001,1.0001 0 0 0 0.04297,0.03125 c 0.179407,0.363042 0.406473,0.715589 0.716797,1.037109 -0.085,0.07731 -0.213009,0.165557 -0.402344,0.212891 a 1.0001,1.0001 0 0 0 -0.736328,0.767578 c 0,0 -0.07985,0.34244 -0.291015,0.66211 -0.05798,0.08777 -0.114155,0.164752 -0.173828,0.232421 -0.144981,-0.03909 -0.29627,-0.05597 -0.451172,-0.02344 -0.601172,0.119669 -1.054089,0.414755 -1.458985,0.708984 -0.115646,-0.162614 -0.221285,-0.291466 -0.316408,-0.484372 -0.162998,-0.330554 -0.330078,-0.824934 -0.330078,-1.74414 0,-0.435062 0.267345,-0.790221 0.509766,-1.148438 0.164029,0.02787 0.325505,0.148438 0.490234,0.148438 0.678214,0 1.299787,-0.301271 1.839844,-0.72461 z"
     id="path178"
     style="fill:#ffffff" />
  <path
     d="m 29.99961,10.811919 c 0.08317,0.04339 0.175211,0.09085 0.27539,0.158203 0.09492,0.63831 0.395255,1.177056 0.861328,1.619141 -0.01675,0.57679 -0.253968,1.104289 -0.677734,1.53125 a 1.0001,1.0001 0 0 0 -0.43164,0.361328 c -0.229324,0.343985 -0.452902,0.455078 -0.867188,0.455078 -0.07778,0 -0.358659,-0.07504 -0.445312,-0.132812 a 1.0001,1.0001 0 0 0 -1.261719,0.125 c -0.141073,0.141072 -0.265,0.302184 -0.388672,0.46289 -0.03196,-0.234917 -0.06112,-0.469523 -0.117188,-0.708984 -0.0947,-0.404466 -0.233018,-0.812119 -0.449218,-1.193359 a 1.0001,1.0001 0 0 0 0.662109,-0.953126 c 0,-0.435062 0.267345,-0.79022 0.509766,-1.148437 0.164029,0.02787 0.325505,0.148437 0.490234,0.148437 0.746934,0 1.336535,-0.324667 1.839844,-0.724609 z"
     id="path176"
     style="fill:#ffffff" />
  <path
     d="m 23.99961,9.6302784 c 0.08616,0.044945 0.180667,0.093411 0.285156,0.1640625 0.112286,0.6422811 0.416644,1.1788241 0.861328,1.6152341 -0.0086,0.29538 -0.06454,0.524074 -0.158203,0.681641 -0.439772,-0.22999 -0.910089,-0.379799 -1.394531,-0.427734 -0.75158,-0.07437 -1.518477,0.07307 -2.214844,0.404296 -0.125478,-0.317649 -0.21875,-0.62388 -0.21875,-0.71289 0,-0.435062 0.267345,-0.790221 0.509766,-1.148438 0.164029,0.02787 0.325505,0.148438 0.490234,0.148438 0.678214,0 1.299787,-0.301271 1.839844,-0.7246096 z"
     id="path174"
     style="fill:#ffffff" />
  <path
     d="m 27.99961,6.811919 c 0.08317,0.04339 0.175211,0.090851 0.27539,0.1582032 0.09574,0.6438404 0.399914,1.1875422 0.873047,1.6308594 -0.0043,0.1317795 -0.02146,0.2597357 -0.04687,0.3847656 a 1.0001,1.0001 0 0 0 -0.02149,0.025391 c -0.257793,0.3222412 -0.600874,0.5253906 -0.919922,0.5253906 -0.07778,0 -0.358659,-0.075043 -0.445312,-0.1328125 a 1.0001,1.0001 0 0 0 -1.261719,0.125 c -0.06794,0.067939 -0.123352,0.1500423 -0.1875,0.2226563 -0.06677,-0.1267849 -0.105468,-0.258685 -0.105468,-0.3964848 V 9.1537159 A 1.0001,1.0001 0 0 0 25.759375,8.3548878 C 25.626203,8.2550088 25.452502,8.137915 25.286719,8.0248097 c 0.10034,-0.2213373 0.242519,-0.4294127 0.382813,-0.6367188 0.164029,0.027868 0.325505,0.1484375 0.490234,0.1484375 0.746934,0 1.336535,-0.3246675 1.839844,-0.7246094 z"
     id="path172"
     style="fill:#ffffff" />
  <path
     d="m 20.089454,6.7142628 c 0.545244,-0.066214 1.074061,0.064296 1.490234,0.4804688 a 1.0001,1.0001 0 0 0 0.05664,0.050781 c 0.340193,0.2915931 0.52094,0.7138098 0.556641,1.1074219 -0.01204,2.014e-4 -0.02083,0.00195 -0.0332,0.00195 -0.07778,0 -0.358659,-0.075043 -0.445312,-0.1328125 a 1.0001,1.0001 0 0 0 -1.261719,0.125 c -0.616363,0.6163624 -1.069302,1.4347879 -1.222657,2.361328 -0.0597,-0.01592 -0.110906,-0.04015 -0.173828,-0.05273 a 1.0001,1.0001 0 0 0 -0.199221,-0.01953 1.0001,1.0001 0 0 0 -0.183594,0.01758 c -0.01871,-0.03018 -0.07227,-0.109375 -0.07227,-0.109375 a 1.0001,1.0001 0 0 0 -0.0078,-0.01172 C 18.326073,10.085667 18.268671,9.4320787 18.257422,8.8939503 18.424949,8.7831281 18.669567,8.720087 18.794532,8.5951222 19.311336,8.0783173 19.482769,7.4552341 19.542578,6.843169 19.724555,6.7808813 19.907705,6.7363341 20.089454,6.7142628 Z"
     id="path170"
     style="fill:#ffffff" />
</svg>
